<mxfile host="app.diagrams.net" modified="2023-07-07T14:43:10.610Z" agent="Mozilla/5.0 (Macintosh; Intel Mac OS X 10.15; rv:109.0) Gecko/20100101 Firefox/114.0" etag="0pI9u0SBq7Jlqm7i8e5p" version="21.6.1" type="device">
  <diagram name="Page-1" id="qPyLBsRdAxL-42QQaer6">
    <mxGraphModel dx="1151" dy="699" grid="1" gridSize="10" guides="1" tooltips="1" connect="1" arrows="1" fold="1" page="1" pageScale="1" pageWidth="827" pageHeight="1169" math="0" shadow="0">
      <root>
        <mxCell id="0" />
        <mxCell id="1" parent="0" />
        <mxCell id="9xJEDV4C4dEwRKaLVc5d-15" value="" style="rounded=0;whiteSpace=wrap;html=1;" vertex="1" parent="1">
          <mxGeometry x="480" y="155" width="540" height="250" as="geometry" />
        </mxCell>
        <mxCell id="9xJEDV4C4dEwRKaLVc5d-13" value="" style="rounded=0;whiteSpace=wrap;html=1;" vertex="1" parent="1">
          <mxGeometry x="150" y="155" width="210" height="250" as="geometry" />
        </mxCell>
        <mxCell id="9xJEDV4C4dEwRKaLVc5d-8" style="edgeStyle=orthogonalEdgeStyle;rounded=0;orthogonalLoop=1;jettySize=auto;html=1;entryX=0;entryY=0.5;entryDx=0;entryDy=0;" edge="1" parent="1" source="9xJEDV4C4dEwRKaLVc5d-1" target="9xJEDV4C4dEwRKaLVc5d-2">
          <mxGeometry relative="1" as="geometry">
            <Array as="points">
              <mxPoint x="660" y="280" />
              <mxPoint x="660" y="195" />
            </Array>
          </mxGeometry>
        </mxCell>
        <mxCell id="9xJEDV4C4dEwRKaLVc5d-27" value="Authentication &lt;br&gt;/ User Management&lt;br&gt;/ Single Sign-On" style="edgeLabel;html=1;align=center;verticalAlign=middle;resizable=0;points=[];" vertex="1" connectable="0" parent="9xJEDV4C4dEwRKaLVc5d-8">
          <mxGeometry x="0.1273" y="-4" relative="1" as="geometry">
            <mxPoint x="-64" y="-32" as="offset" />
          </mxGeometry>
        </mxCell>
        <mxCell id="9xJEDV4C4dEwRKaLVc5d-24" style="edgeStyle=orthogonalEdgeStyle;rounded=0;orthogonalLoop=1;jettySize=auto;html=1;entryX=0;entryY=0.5;entryDx=0;entryDy=0;" edge="1" parent="1" source="9xJEDV4C4dEwRKaLVc5d-1" target="9xJEDV4C4dEwRKaLVc5d-3">
          <mxGeometry relative="1" as="geometry">
            <Array as="points">
              <mxPoint x="660" y="280" />
              <mxPoint x="660" y="370" />
            </Array>
          </mxGeometry>
        </mxCell>
        <mxCell id="9xJEDV4C4dEwRKaLVc5d-1" value="Nginx" style="rounded=0;whiteSpace=wrap;html=1;" vertex="1" parent="1">
          <mxGeometry x="530" y="260" width="80" height="40" as="geometry" />
        </mxCell>
        <mxCell id="9xJEDV4C4dEwRKaLVc5d-5" style="edgeStyle=orthogonalEdgeStyle;rounded=0;orthogonalLoop=1;jettySize=auto;html=1;entryX=0.5;entryY=0;entryDx=0;entryDy=0;" edge="1" parent="1" source="9xJEDV4C4dEwRKaLVc5d-2" target="9xJEDV4C4dEwRKaLVc5d-4">
          <mxGeometry relative="1" as="geometry">
            <Array as="points">
              <mxPoint x="730" y="235" />
              <mxPoint x="810" y="235" />
            </Array>
          </mxGeometry>
        </mxCell>
        <mxCell id="9xJEDV4C4dEwRKaLVc5d-17" value="User Events" style="edgeLabel;html=1;align=center;verticalAlign=middle;resizable=0;points=[];" vertex="1" connectable="0" parent="9xJEDV4C4dEwRKaLVc5d-5">
          <mxGeometry x="0.0615" y="-1" relative="1" as="geometry">
            <mxPoint x="31" y="-11" as="offset" />
          </mxGeometry>
        </mxCell>
        <mxCell id="9xJEDV4C4dEwRKaLVc5d-22" style="edgeStyle=orthogonalEdgeStyle;rounded=0;orthogonalLoop=1;jettySize=auto;html=1;" edge="1" parent="1" source="9xJEDV4C4dEwRKaLVc5d-2" target="9xJEDV4C4dEwRKaLVc5d-21">
          <mxGeometry relative="1" as="geometry" />
        </mxCell>
        <mxCell id="9xJEDV4C4dEwRKaLVc5d-26" value="User Persistence" style="edgeLabel;html=1;align=center;verticalAlign=middle;resizable=0;points=[];" vertex="1" connectable="0" parent="9xJEDV4C4dEwRKaLVc5d-22">
          <mxGeometry x="0.0909" y="1" relative="1" as="geometry">
            <mxPoint x="-40" y="-9" as="offset" />
          </mxGeometry>
        </mxCell>
        <mxCell id="9xJEDV4C4dEwRKaLVc5d-2" value="&lt;div&gt;Keycloak&lt;/div&gt;" style="rounded=0;whiteSpace=wrap;html=1;" vertex="1" parent="1">
          <mxGeometry x="690" y="175" width="80" height="40" as="geometry" />
        </mxCell>
        <mxCell id="9xJEDV4C4dEwRKaLVc5d-23" style="edgeStyle=orthogonalEdgeStyle;rounded=0;orthogonalLoop=1;jettySize=auto;html=1;" edge="1" parent="1" source="9xJEDV4C4dEwRKaLVc5d-3" target="9xJEDV4C4dEwRKaLVc5d-21">
          <mxGeometry relative="1" as="geometry" />
        </mxCell>
        <mxCell id="9xJEDV4C4dEwRKaLVc5d-31" value="Poker Backend Persistence" style="edgeLabel;html=1;align=center;verticalAlign=middle;resizable=0;points=[];" vertex="1" connectable="0" parent="9xJEDV4C4dEwRKaLVc5d-23">
          <mxGeometry x="-0.2098" y="-2" relative="1" as="geometry">
            <mxPoint x="9" y="13" as="offset" />
          </mxGeometry>
        </mxCell>
        <mxCell id="9xJEDV4C4dEwRKaLVc5d-3" value="Poker Backend" style="rounded=0;whiteSpace=wrap;html=1;" vertex="1" parent="1">
          <mxGeometry x="700" y="345" width="80" height="50" as="geometry" />
        </mxCell>
        <mxCell id="9xJEDV4C4dEwRKaLVc5d-9" style="edgeStyle=orthogonalEdgeStyle;rounded=0;orthogonalLoop=1;jettySize=auto;html=1;entryX=0.5;entryY=0;entryDx=0;entryDy=0;" edge="1" parent="1" source="9xJEDV4C4dEwRKaLVc5d-4" target="9xJEDV4C4dEwRKaLVc5d-3">
          <mxGeometry relative="1" as="geometry">
            <Array as="points">
              <mxPoint x="810" y="325" />
              <mxPoint x="740" y="325" />
            </Array>
          </mxGeometry>
        </mxCell>
        <mxCell id="9xJEDV4C4dEwRKaLVc5d-4" value="RabbitMQ" style="rounded=0;whiteSpace=wrap;html=1;" vertex="1" parent="1">
          <mxGeometry x="770" y="265" width="80" height="40" as="geometry" />
        </mxCell>
        <mxCell id="9xJEDV4C4dEwRKaLVc5d-11" style="edgeStyle=orthogonalEdgeStyle;rounded=0;orthogonalLoop=1;jettySize=auto;html=1;entryX=0;entryY=0.5;entryDx=0;entryDy=0;" edge="1" parent="1" source="9xJEDV4C4dEwRKaLVc5d-6" target="9xJEDV4C4dEwRKaLVc5d-1">
          <mxGeometry relative="1" as="geometry">
            <Array as="points">
              <mxPoint x="340" y="315" />
              <mxPoint x="340" y="280" />
            </Array>
          </mxGeometry>
        </mxCell>
        <mxCell id="9xJEDV4C4dEwRKaLVc5d-6" value="&lt;div&gt;Admin&lt;/div&gt;&lt;div&gt;App&lt;br&gt;&lt;/div&gt;" style="rounded=0;whiteSpace=wrap;html=1;" vertex="1" parent="1">
          <mxGeometry x="205" y="285" width="100" height="60" as="geometry" />
        </mxCell>
        <mxCell id="9xJEDV4C4dEwRKaLVc5d-10" value="" style="edgeStyle=orthogonalEdgeStyle;rounded=0;orthogonalLoop=1;jettySize=auto;html=1;" edge="1" parent="1" source="9xJEDV4C4dEwRKaLVc5d-7" target="9xJEDV4C4dEwRKaLVc5d-1">
          <mxGeometry relative="1" as="geometry">
            <Array as="points">
              <mxPoint x="340" y="235" />
              <mxPoint x="340" y="280" />
            </Array>
          </mxGeometry>
        </mxCell>
        <mxCell id="9xJEDV4C4dEwRKaLVc5d-7" value="Consumer Mobile App" style="rounded=0;whiteSpace=wrap;html=1;" vertex="1" parent="1">
          <mxGeometry x="205" y="205" width="100" height="60" as="geometry" />
        </mxCell>
        <mxCell id="9xJEDV4C4dEwRKaLVc5d-14" value="Client" style="text;html=1;strokeColor=none;fillColor=none;align=center;verticalAlign=middle;whiteSpace=wrap;rounded=0;" vertex="1" parent="1">
          <mxGeometry x="150" y="155" width="60" height="30" as="geometry" />
        </mxCell>
        <mxCell id="9xJEDV4C4dEwRKaLVc5d-21" value="PSQL" style="shape=cylinder3;whiteSpace=wrap;html=1;boundedLbl=1;backgroundOutline=1;size=15;" vertex="1" parent="1">
          <mxGeometry x="910" y="245" width="60" height="80" as="geometry" />
        </mxCell>
        <mxCell id="9xJEDV4C4dEwRKaLVc5d-25" value="Server" style="text;html=1;strokeColor=none;fillColor=none;align=center;verticalAlign=middle;whiteSpace=wrap;rounded=0;" vertex="1" parent="1">
          <mxGeometry x="480" y="155" width="60" height="30" as="geometry" />
        </mxCell>
        <mxCell id="9xJEDV4C4dEwRKaLVc5d-28" value="App REST API&lt;br&gt;/ Websocket Requests" style="edgeLabel;html=1;align=center;verticalAlign=middle;resizable=0;points=[];" vertex="1" connectable="0" parent="1">
          <mxGeometry x="590" y="265" as="geometry">
            <mxPoint x="4" y="94" as="offset" />
          </mxGeometry>
        </mxCell>
        <mxCell id="9xJEDV4C4dEwRKaLVc5d-38" value="" style="endArrow=none;dashed=1;html=1;dashPattern=1 3;strokeWidth=2;rounded=0;" edge="1" parent="1">
          <mxGeometry width="50" height="50" relative="1" as="geometry">
            <mxPoint x="400" y="490" as="sourcePoint" />
            <mxPoint x="400" y="50" as="targetPoint" />
          </mxGeometry>
        </mxCell>
        <mxCell id="9xJEDV4C4dEwRKaLVc5d-40" value="&lt;div&gt;HTTPS&lt;/div&gt;&lt;div&gt;/ WSS&lt;/div&gt;" style="text;html=1;strokeColor=none;fillColor=none;align=center;verticalAlign=middle;whiteSpace=wrap;rounded=0;" vertex="1" parent="1">
          <mxGeometry x="414" y="250" width="60" height="30" as="geometry" />
        </mxCell>
      </root>
    </mxGraphModel>
  </diagram>
</mxfile>
